<svg xmlns="http://www.w3.org/2000/svg" viewBox="0 0 64 64" role="img" aria-labelledby="title desc">
  <title id="title">Canonry canary</title>
  <desc id="desc">A more realistic right-facing red canary mark for the Canonry logo and favicon.</desc>
  <defs>
    <linearGradient id="canonry-body" x1="14" y1="16" x2="52" y2="52" gradientUnits="userSpaceOnUse">
      <stop offset="0" stop-color="#F14B45" />
      <stop offset=".58" stop-color="#D82220" />
      <stop offset="1" stop-color="#9B1218" />
    </linearGradient>
    <linearGradient id="canonry-wing" x1="23" y1="28" x2="43" y2="50" gradientUnits="userSpaceOnUse">
      <stop offset="0" stop-color="#BD1C22" />
      <stop offset="1" stop-color="#7C0D15" />
    </linearGradient>
    <linearGradient id="canonry-tail" x1="5" y1="47" x2="16" y2="51" gradientUnits="userSpaceOnUse">
      <stop offset="0" stop-color="#7B0E17" />
      <stop offset="1" stop-color="#A7151E" />
    </linearGradient>
    <linearGradient id="canonry-beak" x1="49" y1="26" x2="63" y2="35" gradientUnits="userSpaceOnUse">
      <stop offset="0" stop-color="#FFF7FB" />
      <stop offset=".62" stop-color="#F3D8E4" />
      <stop offset="1" stop-color="#DFA9C1" />
    </linearGradient>
  </defs>
  <g fill="none" stroke-linecap="round" stroke-linejoin="round">
    <path
      d="M10.1 45.6c.9-11.8 6-21.1 15.2-27.1 7.2-4.8 16-6 23-3.2 4.5 1.8 8.1 5.3 9.8 10 2 .9 3.3 2.6 3.6 4.8.4 2.9-.9 5.4-3.4 7-1.4 6.2-4.8 11.2-10.1 14.9-8.7 6.1-22.5 6.7-31.7 1.4-4.5-2.6-6.8-4.8-6.4-7.8Z"
      fill="url(#canonry-body)"
      stroke="#731018"
      stroke-width="2.2"
    />
    <path d="M10.2 45.6 4 49.4l8.9 1.3 3.3-4.9Z" fill="url(#canonry-tail)" stroke="none" />
    <path
      d="M22.2 31.9c3.7-5.3 9.4-7.9 16.5-7.6 6.5.3 11.6 2.9 14.8 7.6-2 8.9-7.8 15.2-17 18.6-7.5-2.4-12.2-8.5-14.3-18.6Z"
      fill="url(#canonry-wing)"
      fill-opacity=".96"
      stroke="none"
    />
    <path
      d="M39 31.3c4.2 2.1 7 5.7 8.4 10.9-2.7 2.5-6 4.5-9.9 5.9 1-4.2 1.5-9.8 1.5-16.8Z"
      fill="#5F0E16"
      fill-opacity=".34"
      stroke="none"
    />
    <path d="M23 33.5c3.1 7.1 7.6 11.7 13.6 15" stroke="#FF8C8A" stroke-opacity=".16" stroke-width="2" />
    <path d="M26.2 24.3c4.9-3.5 10.5-4.6 16.8-3.2" stroke="#FFA09B" stroke-opacity=".26" stroke-width="2.1" />
    <path d="M40.8 21.8c4.8-.6 8.8.4 12.1 3-2.4.7-4.6 1.8-6.4 3.4-2.7-.6-4.5-2.7-5.7-6.4Z" fill="#A2161E" fill-opacity=".34" stroke="none" />
    <path d="M46 23.2c1.9-1.5 4.1-2.1 6.7-1.8" stroke="#7A1118" stroke-width="2" />
    <circle cx="48.2" cy="26.8" r="2.35" fill="#110A0B" />
    <circle cx="49.1" cy="25.9" r=".75" fill="#FFF7EF" />
    <path d="M51.1 27.2 62.6 31.1 51 36.4 46.8 31.8Z" fill="url(#canonry-beak)" stroke="#C88DA7" stroke-width="1" />
    <path d="M51.1 27.2c2.2.5 4.1 1.5 5.7 3.1-2 1.2-3.9 2-5.8 2.4" stroke="#FFF6FB" stroke-width=".8" />
  </g>
</svg>
