<svg xmlns="http://www.w3.org/2000/svg" viewBox="0 0 64 64" role="img" aria-labelledby="title desc">
  <title id="title">Canonry canary</title>
  <desc id="desc">A red canary profile based on a real canary reference, facing right.</desc>
  <defs>
    <linearGradient id="body" x1="13" y1="15" x2="52" y2="51" gradientUnits="userSpaceOnUse">
      <stop offset="0" stop-color="#F25049" />
      <stop offset=".55" stop-color="#DA241E" />
      <stop offset="1" stop-color="#9D1419" />
    </linearGradient>
    <linearGradient id="head" x1="33" y1="13" x2="56" y2="34" gradientUnits="userSpaceOnUse">
      <stop offset="0" stop-color="#EF403C" />
      <stop offset="1" stop-color="#B5161E" />
    </linearGradient>
    <linearGradient id="wing" x1="21" y1="28" x2="42" y2="48" gradientUnits="userSpaceOnUse">
      <stop offset="0" stop-color="#BE1A22" />
      <stop offset="1" stop-color="#790E17" />
    </linearGradient>
    <linearGradient id="beak" x1="49" y1="27" x2="63" y2="36" gradientUnits="userSpaceOnUse">
      <stop offset="0" stop-color="#FFF8FB" />
      <stop offset=".6" stop-color="#F3D8E5" />
      <stop offset="1" stop-color="#DFA8C2" />
    </linearGradient>
    <linearGradient id="tail" x1="6" y1="46" x2="16" y2="50" gradientUnits="userSpaceOnUse">
      <stop offset="0" stop-color="#7A0F16" />
      <stop offset="1" stop-color="#A7161D" />
    </linearGradient>
  </defs>
  <g fill="none" stroke-linecap="round" stroke-linejoin="round">
    <path
      d="M9.4 46.4c.8-10.5 4.9-18.9 12.4-25 6.1-5 13.5-7.2 21.1-6.5 6 .6 11.2 3.4 14.2 8 2 3.1 2.8 6.2 2.4 9.5-.5 4.2-2.5 7.9-6.1 11.1-1.8 1.6-4 3-6.6 4.2-1.8 4.5-6.5 7.7-12.9 8.9-9.9 1.8-21-.9-24.5-10.2Z"
      fill="url(#body)"
      stroke="#741118"
      stroke-width="2.15"
    />
    <path
      d="M33 17.6c7-2.3 13.4-.6 19 5 2.8 2.8 4.4 6 4.8 9.7-2.3 6.5-6.6 11.6-13.1 15.2-4 2.2-8.1 3.4-12.5 3.8 6.1-5.7 8.6-16.9 1.8-33.7Z"
      fill="url(#head)"
      fill-opacity=".42"
      stroke="none"
    />
    <path d="M8.9 46.6 4 50.1l8.4 1.3 3.5-4.4Z" fill="url(#tail)" stroke="none" />
    <path
      d="M21.8 31.4c3.8-5.3 9.3-7.8 16.1-7.4 6.4.4 11.5 3 14.7 7.7-2 8.7-7.5 14.8-16.5 18.2-7.4-2.5-12.2-8.7-14.3-18.5Z"
      fill="url(#wing)"
      fill-opacity=".96"
      stroke="none"
    />
    <path
      d="M39.1 31.4c4.2 2.3 7 5.9 8.4 10.9-2.6 2.5-5.9 4.4-9.7 5.7 1-4 1.4-9.5 1.3-16.6Z"
      fill="#5A0D15"
      fill-opacity=".38"
      stroke="none"
    />
    <path d="M23 33.4c3.2 7.1 7.7 11.8 13.4 15.1" stroke="#FF928B" stroke-opacity=".18" stroke-width="1.9" />
    <path d="M25.8 24.4c5-3.5 10.7-4.6 17-3.1" stroke="#FFA39B" stroke-opacity=".24" stroke-width="2" />
    <path d="M43.8 22.8c4.4-.8 8 .1 10.9 2.7-2.2.8-4.1 2-5.6 3.7-2.4-.6-4.2-2.7-5.3-6.4Z" fill="#9E151D" fill-opacity=".24" stroke="none" />
    <circle cx="47.6" cy="27.3" r="2.2" fill="#0F090A" />
    <circle cx="48.4" cy="26.4" r=".62" fill="#FFF8F0" />
    <path d="M50 27.8 62.1 31.2 50.6 36.4 46.8 31.9Z" fill="url(#beak)" stroke="#C98DA9" stroke-width=".85" />
    <path d="M50.3 27.7c2.3.5 4.3 1.5 6 3-2 1.3-4.1 2.1-6.2 2.5" stroke="#FFF8FD" stroke-width=".75" />
  </g>
</svg>
