<svg xmlns="http://www.w3.org/2000/svg" viewBox="0 0 64 64" role="img" aria-labelledby="title desc">
  <title id="title">Canonry canary</title>
  <desc id="desc">A red canary profile based on a real canary reference, facing right.</desc>
  <defs>
    <linearGradient id="body" x1="18" y1="18" x2="44" y2="50" gradientUnits="userSpaceOnUse">
      <stop offset="0" stop-color="#F24A42" />
      <stop offset=".56" stop-color="#DA231D" />
      <stop offset="1" stop-color="#9A1218" />
    </linearGradient>
    <linearGradient id="head" x1="40" y1="14" x2="57" y2="31" gradientUnits="userSpaceOnUse">
      <stop offset="0" stop-color="#F04842" />
      <stop offset="1" stop-color="#B5161E" />
    </linearGradient>
    <linearGradient id="wing" x1="20" y1="24" x2="40" y2="46" gradientUnits="userSpaceOnUse">
      <stop offset="0" stop-color="#C31D25" />
      <stop offset="1" stop-color="#700C15" />
    </linearGradient>
    <linearGradient id="tail" x1="4" y1="44" x2="18" y2="50" gradientUnits="userSpaceOnUse">
      <stop offset="0" stop-color="#6F0D15" />
      <stop offset="1" stop-color="#A9161D" />
    </linearGradient>
    <linearGradient id="beak" x1="50" y1="24" x2="62" y2="32" gradientUnits="userSpaceOnUse">
      <stop offset="0" stop-color="#E7C8A2" />
      <stop offset=".65" stop-color="#CAA17A" />
      <stop offset="1" stop-color="#A97A53" />
    </linearGradient>
  </defs>
  <g fill="none" stroke-linecap="round" stroke-linejoin="round">
    <path d="M2.8 49.4 19 39 20.3 40.4 6.1 53.2Z" fill="url(#tail)" stroke="#741118" stroke-width="1" />
    <path d="M5.1 47.6 19.2 38.5 20.2 39.6 8.8 50.7Z" fill="#B71D24" fill-opacity=".72" stroke="none" />
    <path
      d="M18.2 42.5c0-7.4 3.2-13.4 8.8-16.8 5-3 11.4-3.7 17.2-1.8 5.3 1.8 9 5.5 10.8 10.4-2.8 5.8-8 9.4-15.3 10.8-8.5 1.6-15.7.7-21.5-2.6Z"
      fill="url(#body)"
      stroke="#741118"
      stroke-width="1.35"
    />
    <path
      d="M43.3 19.4c3.8-.9 7.2-.2 10.1 2 2.4 1.8 3.9 4.3 4.5 7.4-1.8 3.4-4.7 5.9-8.7 7.6-2.4 1-4.9 1.7-7.7 1.8 1.5-4.1 2.1-10.4 1.8-18.8Z"
      fill="url(#head)"
      fill-opacity=".42"
      stroke="none"
    />
    <path
      d="M24.8 31.4c3.1-3.5 7.1-5 11.9-4.6 5.6.5 10 3 13.1 7.5-2.7 5-6.5 8.7-11.6 11.1-5.6-2-10-6.7-13.4-14Z"
      fill="url(#wing)"
      fill-opacity=".96"
      stroke="none"
    />
    <path
      d="M35.2 29.6c4.1 1.8 7.6 5 10.4 9.5-1.8 2.3-4.2 4.2-7.3 5.7-.8-5.1-1.8-10.1-3.1-15.2Z"
      fill="#5D0D15"
      fill-opacity=".3"
      stroke="none"
    />
    <path d="M26.8 32.8c3.5 5.4 7.2 9.2 11.3 11.7" stroke="#FF8E87" stroke-opacity=".16" stroke-width="1.35" />
    <path d="M28.2 25.8c4.1-1.9 8.5-2.2 13.2-.8" stroke="#FFA099" stroke-opacity=".2" stroke-width="1.45" />
    <path d="M43.9 21.7c3.7-.8 6.9-.1 9.6 1.9-2.1.8-3.9 2.1-5.2 3.9-1.9-.6-3.4-2.5-4.4-5.8Z" fill="#A1151C" fill-opacity=".18" stroke="none" />
    <circle cx="49.3" cy="25.9" r="1.8" fill="#110A0B" />
    <circle cx="49.9" cy="25.3" r=".48" fill="#FFF8F0" />
    <path d="M50.4 26.3 61.9 29 51.5 34.6 47.8 30.7Z" fill="url(#beak)" stroke="#8E6546" stroke-width=".75" />
    <path d="M50.7 26.5c1.8.4 3.5 1 5.1 2-1.7 1.3-3.6 2.2-5.5 2.7" stroke="#F8EBDD" stroke-width=".5" />
    <path d="M31.6 44.5 33.3 53.5" stroke="#6A4A3A" stroke-width="1.2" />
    <path d="M35.7 44.9 37.2 53.8" stroke="#6A4A3A" stroke-width="1.2" />
    <path d="M33.3 53.5 29.8 56.6m3.5-3.1 2.7 2.4m0-2.4 3.6-.9" stroke="#4F3427" stroke-width=".95" />
    <path d="M37.2 53.8 33.9 57m3.3-3.2 2.6 2.3m0-2.3 3.4-.9" stroke="#4F3427" stroke-width=".95" />
  </g>
</svg>
