<svg xmlns="http://www.w3.org/2000/svg" viewBox="0 0 120 72" role="img" aria-labelledby="title desc">
  <title id="title">Canonry logo canary</title>
  <desc id="desc">A right-facing red canary logo inspired by a real red canary.</desc>
  <defs>
    <linearGradient id="logo-body" x1="36" y1="18" x2="82" y2="58" gradientUnits="userSpaceOnUse">
      <stop offset="0" stop-color="#F24A42" />
      <stop offset=".56" stop-color="#DA231D" />
      <stop offset="1" stop-color="#9A1218" />
    </linearGradient>
    <linearGradient id="logo-head" x1="66" y1="14" x2="95" y2="36" gradientUnits="userSpaceOnUse">
      <stop offset="0" stop-color="#F04842" />
      <stop offset="1" stop-color="#B5161E" />
    </linearGradient>
    <linearGradient id="logo-wing" x1="43" y1="28" x2="68" y2="52" gradientUnits="userSpaceOnUse">
      <stop offset="0" stop-color="#C31D25" />
      <stop offset="1" stop-color="#700C15" />
    </linearGradient>
    <linearGradient id="logo-tail" x1="7" y1="43" x2="32" y2="58" gradientUnits="userSpaceOnUse">
      <stop offset="0" stop-color="#6F0D15" />
      <stop offset="1" stop-color="#A9161D" />
    </linearGradient>
    <linearGradient id="logo-beak" x1="82" y1="24" x2="104" y2="34" gradientUnits="userSpaceOnUse">
      <stop offset="0" stop-color="#E7C8A2" />
      <stop offset=".65" stop-color="#CAA17A" />
      <stop offset="1" stop-color="#A97A53" />
    </linearGradient>
  </defs>
  <g fill="none" stroke-linecap="round" stroke-linejoin="round">
    <path d="M6 51.8 38.8 31.7 41.8 34.6 10.6 60.2Z" fill="url(#logo-tail)" stroke="#741118" stroke-width="1.25" />
    <path d="M10.2 48.2 39.8 30 42.1 32.2 15.1 54.4Z" fill="#B71D24" fill-opacity=".72" stroke="none" />
    <path
      d="M35.8 45.8c0-9.8 4.5-17.7 12.3-22.1 7.2-4 16.2-4.9 24.4-2.2 8.2 2.8 14.4 8.5 17.5 16.1-3.1 8.4-9.4 14.6-18.7 18.2-11.6 4.6-24.5 4.2-35.5-1.1Z"
      fill="url(#logo-body)"
      stroke="#741118"
      stroke-width="1.45"
    />
    <path
      d="M68.8 16.9c6.1-1.3 11.5-.2 16 3.2 3.4 2.6 5.7 6 6.7 10.1-2.2 4.8-6 8.5-11.4 11.1-3.4 1.7-7.2 2.8-11.5 3.2 1.9-5.1 2-14.3.2-27.6Z"
      fill="url(#logo-head)"
      fill-opacity=".44"
      stroke="none"
    />
    <path
      d="M45.8 32.8c3.9-4.2 8.9-6.1 15.1-5.7 7.1.5 12.8 3.6 17.1 9.1-3 6.5-8 11.4-15 14.7-7.3-2.5-13.4-9.2-17.2-18.1Z"
      fill="url(#logo-wing)"
      fill-opacity=".97"
      stroke="none"
    />
    <path
      d="M60.1 30.6c5.3 2 9.8 5.7 13.2 11.1-2.3 2.7-5.3 5-9 6.6-.9-5.8-2.4-11.7-4.2-17.7Z"
      fill="#5D0D15"
      fill-opacity=".3"
      stroke="none"
    />
    <path d="M49.1 33.7c4.2 6.5 8.8 11.1 14 14" stroke="#FF8E87" stroke-opacity=".16" stroke-width="1.55" />
    <path d="M50.6 26.6c5-2.1 10.2-2.3 15.8-.5" stroke="#FFA099" stroke-opacity=".2" stroke-width="1.65" />
    <path d="M70.4 18.9c4.7-.8 8.8 0 12.2 2.2-2.4.9-4.4 2.3-6 4.3-2.2-.6-4.3-2.8-6.2-6.5Z" fill="#A1151C" fill-opacity=".18" stroke="none" />
    <circle cx="80.6" cy="25.6" r="2.45" fill="#110A0B" />
    <circle cx="81.4" cy="24.8" r=".62" fill="#FFF8F0" />
    <path d="M82 25.8 103.4 30 82.4 38.5 75.6 32.3Z" fill="url(#logo-beak)" stroke="#8E6546" stroke-width=".85" />
    <path d="M82.6 26.2c3 .4 5.9 1.3 8.4 2.9-2.6 1.9-5.5 3.1-8.5 3.7" stroke="#F8EBDD" stroke-width=".65" />
    <path d="M60.4 48.5 62.8 63.3" stroke="#6A4A3A" stroke-width="1.4" />
    <path d="M66.8 49 69 63.6" stroke="#6A4A3A" stroke-width="1.4" />
    <path d="M62.8 63.3 58.1 67.4m4.7-4.1 3.9 3.2m0-3.2 5.1-1.3" stroke="#4F3427" stroke-width="1.05" />
    <path d="M69 63.6 64.8 67.7m4.2-4.1 3.6 3m0-3 5-1.2" stroke="#4F3427" stroke-width="1.05" />
  </g>
</svg>
